<?xml version="1.0" encoding="UTF-8" standalone="no"?>
<svg
   xmlns:dc="http://purl.org/dc/elements/1.1/"
   xmlns:cc="http://creativecommons.org/ns#"
   xmlns:rdf="http://www.w3.org/1999/02/22-rdf-syntax-ns#"
   xmlns:svg="http://www.w3.org/2000/svg"
   xmlns="http://www.w3.org/2000/svg"
   xmlns:sodipodi="http://sodipodi.sourceforge.net/DTD/sodipodi-0.dtd"
   xmlns:inkscape="http://www.inkscape.org/namespaces/inkscape"
   inkscape:version="1.0 (6e3e5246a0, 2020-05-07)"
   height="256"
   width="256"
   sodipodi:docname="linkedin.svg"
   id="svg4"
   version="1.1"
   viewBox="0 0 256 256">
  <metadata
     id="metadata10">
    <rdf:RDF>
      <cc:Work
         rdf:about="">
        <dc:format>image/svg+xml</dc:format>
        <dc:type
           rdf:resource="http://purl.org/dc/dcmitype/StillImage" />
        <dc:title></dc:title>
      </cc:Work>
    </rdf:RDF>
  </metadata>
  <defs
     id="defs8" />
  <sodipodi:namedview
     fit-margin-bottom="0"
     fit-margin-right="0"
     fit-margin-left="0"
     fit-margin-top="0"
     inkscape:current-layer="svg4"
     inkscape:window-maximized="0"
     inkscape:window-y="68"
     inkscape:window-x="264"
     inkscape:cy="251.51475"
     inkscape:cx="184.65773"
     inkscape:zoom="1.1191099"
     showgrid="false"
     id="namedview6"
     inkscape:window-height="864"
     inkscape:window-width="966"
     inkscape:pageshadow="2"
     inkscape:pageopacity="0"
     guidetolerance="10"
     gridtolerance="10"
     objecttolerance="10"
     borderopacity="1"
     bordercolor="#666666"
     pagecolor="#ffffff" />
  <path
     style="stroke-width:0.670157"
     id="path2"
     fill="#0077b7"
     d="M 232.84272,0 H 23.157277 C 10.368,0 0,10.368 0,23.157277 V 232.84205 C 0,245.632 10.368,256 23.157277,256 H 232.84205 C 245.632,256 256,245.632 256,232.84205 V 23.157277 C 256,10.368 245.632,0 232.84272,0 Z M 79.217257,221.04729 c 0,3.72205 -3.017048,6.7391 -6.7391,6.7391 H 43.791414 c -3.722053,0 -6.7391,-3.01705 -6.7391,-6.7391 V 100.79363 c 0,-3.722049 3.017047,-6.739096 6.7391,-6.739096 h 28.686743 c 3.722052,0 6.7391,3.017047 6.7391,6.739096 z M 58.134785,82.718827 c -15.051057,0 -27.252607,-12.20155 -27.252607,-27.252607 0,-15.051058 12.20155,-27.252607 27.252607,-27.252607 15.051058,0 27.252608,12.201549 27.252608,27.252607 0,15.051057 -12.20088,27.252607 -27.252608,27.252607 z M 229.1334,221.59012 a 6.1969424,6.1969424 0 0 1 -6.19627,6.19627 h -30.78299 a 6.1969424,6.1969424 0 0 1 -6.19628,-6.19627 v -56.40578 c 0,-8.4145 2.46819,-36.87272 -21.98986,-36.87272 -18.97148,0 -22.81952,19.47879 -23.59221,28.22032 v 65.05818 a 6.1962723,6.1962723 0 0 1 -6.19627,6.19627 h -29.7724 a 6.1969424,6.1969424 0 0 1 -6.196272,-6.19627 V 100.25081 a 6.1969424,6.1969424 0 0 1 6.196272,-6.196276 h 29.7724 a 6.1969424,6.1969424 0 0 1 6.19627,6.196276 v 10.49131 c 7.03464,-10.55699 17.48909,-18.705429 39.74836,-18.705429 49.29139,0 49.00925,46.050509 49.00925,71.352959 z" />
</svg>
